<svg aria-hidden="true" style="position: absolute; width: 0; height: 0; overflow: hidden;" version="1.1" xmlns="http://www.w3.org/2000/svg" xmlns:xlink="http://www.w3.org/1999/xlink">
<defs>
<symbol id="icon-dots" viewBox="0 0 160 32">
<path fill="#fff" style="fill: var(--color1, #fff)" d="M16 0c8.837 0 16 7.163 16 16s-7.163 16-16 16v0c-8.837 0-16-7.163-16-16s7.163-16 16-16v0z"></path>
<path fill="#fff" style="fill: var(--color1, #fff)" opacity="0.20000000298023224" d="M80 0c8.837 0 16 7.163 16 16s-7.163 16-16 16v0c-8.837 0-16-7.163-16-16s7.163-16 16-16v0z"></path>
<path fill="#fff" style="fill: var(--color1, #fff)" opacity="0.20000000298023224" d="M144 0c8.837 0 16 7.163 16 16s-7.163 16-16 16v0c-8.837 0-16-7.163-16-16s7.163-16 16-16v0z"></path>
</symbol>
<symbol id="icon-inspired" viewBox="0 0 32 32">
<path fill="#fff" style="fill: var(--color1, #fff)" opacity="0.20000000298023224" d="M144 0c8.837 0 16 7.163 16 16s-7.163 16-16 16v0c-8.837 0-16-7.163-16-16s7.163-16 16-16v0z"></path>
</symbol>
<symbol id="icon-Layer" viewBox="0 0 45 32">
<path fill="#fff" style="fill: var(--color1, #fff)" opacity="0.20000000298023224" d="M144 0c8.837 0 16 7.163 16 16s-7.163 16-16 16v0c-8.837 0-16-7.163-16-16s7.163-16 16-16v0z"></path>
</symbol>
<symbol id="icon-line" viewBox="0 0 2816 32">
<path fill="#fff" style="fill: var(--color1, #fff)" opacity="0.20000000298023224" d="M144 0c8.837 0 16 7.163 16 16s-7.163 16-16 16v0c-8.837 0-16-7.163-16-16s7.163-16 16-16v0z"></path>
</symbol>
<symbol id="icon-logo" viewBox="0 0 35 32">
<path fill="#fff" style="fill: var(--color1, #fff)" opacity="0.20000000298023224" d="M144 0c8.837 0 16 7.163 16 16s-7.163 16-16 16v0c-8.837 0-16-7.163-16-16s7.163-16 16-16v0z"></path>
</symbol>
<symbol id="icon-rewarded" viewBox="0 0 32 32">
<path fill="#fff" style="fill: var(--color1, #fff)" opacity="0.20000000298023224" d="M144 0c8.837 0 16 7.163 16 16s-7.163 16-16 16v0c-8.837 0-16-7.163-16-16s7.163-16 16-16v0z"></path>
</symbol>
<symbol id="icon-social" viewBox="0 0 48 32">
<path fill="#fff" style="fill: var(--color1, #fff)" opacity="0.20000000298023224" d="M144 0c8.837 0 16 7.163 16 16s-7.163 16-16 16v0c-8.837 0-16-7.163-16-16s7.163-16 16-16v0z"></path>
</symbol>
</defs>
</svg>
